STARTFONT 2.1
COMMENT AUTOMATICALLY GENERATED FILE. DO NOT EDIT!
COMMENT Generated with 'ucs2any.pl luIS10.bdf ../../../fonts/util/map-ISO8859-1 ISO8859-1'
COMMENT from an ISO10646-1 encoded source BDF font.
COMMENT ucs2any.pl by Markus Kuhn <mkuhn@acm.org>, 2000.
COMMENT $Xorg: $
COMMENT ISO10646-1 extension by Markus Kuhn <mkuhn@acm.org>, 2001-03-20
COMMENT  (c) Copyright Bigelow & Holmes 1986, 1985. Lucida is a registered
COMMENT  trademark of Bigelow & Holmes. See LEGAL NOTICE file for terms 
COMMENT  of the license. 
COMMENT GRID 0010 0010 0200 0200
FONT -B&H-Lucida-Medium-I-Normal-Sans-10-100-75-75-P-59-ISO8859-1
SIZE 10 72 72
FONTBOUNDINGBOX 11 11 -1 -2
STARTPROPERTIES 22
COMMENT Begin LogicalFontDescription
FONTNAME_REGISTRY ""
FOUNDRY "B&H"
FAMILY_NAME "Lucida"
WEIGHT_NAME "Medium"
SLANT "I"
SETWIDTH_NAME "Normal"
ADD_STYLE_NAME "Sans"
PIXEL_SIZE 10
POINT_SIZE 100
RESOLUTION_X 75
RESOLUTION_Y 75
SPACING "P"
AVERAGE_WIDTH 59
CHARSET_REGISTRY "ISO8859"
CHARSET_ENCODING "1"
COMMENT END LogicalFontDescription
FONT_ASCENT 9
FONT_DESCENT 2
DEFAULT_CHAR 0
COPYRIGHT "Copyright Bigelow & Holmes 1986, 1985."
FACE_NAME "Lucida Sans Italic"
X_HEIGHT 6
CAP_HEIGHT 7
ENDPROPERTIES
CHARS 192
STARTCHAR defaultchar
ENCODING 0
SWIDTH 735 0
DWIDTH 7 0
BBX 5 7 1 0
BITMAP
A8
00
88
00
88
00
A8
ENDCHAR
STARTCHAR space
ENCODING 32
SWIDTH 316 0
DWIDTH 3 0
BBX 1 1 0 0
BITMAP
00
ENDCHAR
STARTCHAR exclam
ENCODING 33
SWIDTH 193 0
DWIDTH 3 0
BBX 3 7 0 0
BITMAP
20
20
40
40
00
80
80
ENDCHAR
STARTCHAR quotedbl
ENCODING 34
SWIDTH 361 0
DWIDTH 4 0
BBX 3 3 1 5
BITMAP
A0
A0
A0
ENDCHAR
STARTCHAR numbersign
ENCODING 35
SWIDTH 633 0
DWIDTH 7 0
BBX 7 7 0 0
BITMAP
14
14
76
28
EC
50
50
ENDCHAR
STARTCHAR dollar
ENCODING 36
SWIDTH 633 0
DWIDTH 7 0
BBX 6 9 1 -1
BITMAP
10
3C
50
50
30
28
28
F0
20
ENDCHAR
STARTCHAR percent
ENCODING 37
SWIDTH 741 0
DWIDTH 8 0
BBX 7 7 1 0
BITMAP
40
A4
48
10
24
4A
04
ENDCHAR
STARTCHAR ampersand
ENCODING 38
SWIDTH 701 0
DWIDTH 7 0
BBX 6 7 1 0
BITMAP
38
48
30
64
94
98
E4
ENDCHAR
STARTCHAR quotesingle
ENCODING 39
SWIDTH 217 0
DWIDTH 2 0
BBX 1 3 1 5
BITMAP
80
80
80
ENDCHAR
STARTCHAR parenleft
ENCODING 40
SWIDTH 325 0
DWIDTH 3 0
BBX 4 9 0 -1
BITMAP
10
20
40
40
80
80
80
80
40
ENDCHAR
STARTCHAR parenright
ENCODING 41
SWIDTH 325 0
DWIDTH 3 0
BBX 4 9 -1 -1
BITMAP
20
10
10
10
10
20
20
40
80
ENDCHAR
STARTCHAR asterisk
ENCODING 42
SWIDTH 470 0
DWIDTH 5 0
BBX 5 3 0 4
BITMAP
58
20
D0
ENDCHAR
STARTCHAR plus
ENCODING 43
SWIDTH 633 0
DWIDTH 7 0
BBX 6 5 1 1
BITMAP
10
10
FC
20
20
ENDCHAR
STARTCHAR comma
ENCODING 44
SWIDTH 316 0
DWIDTH 3 0
BBX 2 3 0 -1
BITMAP
40
40
80
ENDCHAR
STARTCHAR hyphen
ENCODING 45
SWIDTH 313 0
DWIDTH 3 0
BBX 2 1 1 3
BITMAP
C0
ENDCHAR
STARTCHAR period
ENCODING 46
SWIDTH 316 0
DWIDTH 3 0
BBX 1 2 1 0
BITMAP
80
80
ENDCHAR
STARTCHAR slash
ENCODING 47
SWIDTH 482 0
DWIDTH 5 0
BBX 6 9 -1 -1
BITMAP
04
04
08
10
10
20
40
80
80
ENDCHAR
STARTCHAR zero
ENCODING 48
SWIDTH 633 0
DWIDTH 7 0
BBX 5 7 1 0
BITMAP
30
48
48
88
90
90
60
ENDCHAR
STARTCHAR one
ENCODING 49
SWIDTH 633 0
DWIDTH 7 0
BBX 3 7 2 0
BITMAP
20
E0
20
60
40
40
40
ENDCHAR
STARTCHAR two
ENCODING 50
SWIDTH 633 0
DWIDTH 7 0
BBX 5 7 1 0
BITMAP
70
08
08
30
40
80
F0
ENDCHAR
STARTCHAR three
ENCODING 51
SWIDTH 633 0
DWIDTH 7 0
BBX 5 7 1 0
BITMAP
70
08
08
30
10
10
E0
ENDCHAR
STARTCHAR four
ENCODING 52
SWIDTH 633 0
DWIDTH 7 0
BBX 5 7 1 0
BITMAP
18
28
48
90
F8
10
10
ENDCHAR
STARTCHAR five
ENCODING 53
SWIDTH 633 0
DWIDTH 7 0
BBX 6 7 1 0
BITMAP
3C
40
70
08
08
10
E0
ENDCHAR
STARTCHAR six
ENCODING 54
SWIDTH 633 0
DWIDTH 7 0
BBX 6 7 1 0
BITMAP
1C
20
40
70
88
88
70
ENDCHAR
STARTCHAR seven
ENCODING 55
SWIDTH 633 0
DWIDTH 7 0
BBX 6 7 1 0
BITMAP
7C
04
08
10
20
40
80
ENDCHAR
STARTCHAR eight
ENCODING 56
SWIDTH 633 0
DWIDTH 7 0
BBX 5 7 1 0
BITMAP
30
48
48
70
88
88
70
ENDCHAR
STARTCHAR nine
ENCODING 57
SWIDTH 633 0
DWIDTH 7 0
BBX 6 7 0 0
BITMAP
38
44
44
38
08
10
E0
ENDCHAR
STARTCHAR colon
ENCODING 58
SWIDTH 316 0
DWIDTH 3 0
BBX 2 6 1 0
BITMAP
40
40
00
00
80
80
ENDCHAR
STARTCHAR semicolon
ENCODING 59
SWIDTH 316 0
DWIDTH 3 0
BBX 3 7 0 -1
BITMAP
20
20
00
00
40
40
80
ENDCHAR
STARTCHAR less
ENCODING 60
SWIDTH 633 0
DWIDTH 7 0
BBX 6 5 0 1
BITMAP
0C
30
C0
20
10
ENDCHAR
STARTCHAR equal
ENCODING 61
SWIDTH 633 0
DWIDTH 7 0
BBX 6 3 1 2
BITMAP
7C
00
F8
ENDCHAR
STARTCHAR greater
ENCODING 62
SWIDTH 633 0
DWIDTH 7 0
BBX 6 5 1 1
BITMAP
20
10
0C
30
C0
ENDCHAR
STARTCHAR question
ENCODING 63
SWIDTH 464 0
DWIDTH 5 0
BBX 4 7 1 0
BITMAP
60
90
10
60
00
80
80
ENDCHAR
STARTCHAR at
ENCODING 64
SWIDTH 858 0
DWIDTH 9 0
BBX 7 7 1 0
BITMAP
1C
22
4E
94
9E
80
78
ENDCHAR
STARTCHAR A
ENCODING 65
SWIDTH 687 0
DWIDTH 7 0
BBX 5 7 1 0
BITMAP
08
18
28
48
78
88
88
ENDCHAR
STARTCHAR B
ENCODING 66
SWIDTH 593 0
DWIDTH 6 0
BBX 4 7 1 0
BITMAP
60
50
50
E0
90
90
E0
ENDCHAR
STARTCHAR C
ENCODING 67
SWIDTH 679 0
DWIDTH 7 0
BBX 6 7 1 0
BITMAP
3C
40
80
80
80
80
78
ENDCHAR
STARTCHAR D
ENCODING 68
SWIDTH 743 0
DWIDTH 8 0
BBX 6 7 1 0
BITMAP
78
44
44
C4
84
88
F0
ENDCHAR
STARTCHAR E
ENCODING 69
SWIDTH 547 0
DWIDTH 6 0
BBX 5 7 1 0
BITMAP
78
40
40
F0
80
80
F0
ENDCHAR
STARTCHAR F
ENCODING 70
SWIDTH 536 0
DWIDTH 6 0
BBX 5 7 1 0
BITMAP
78
40
40
F0
80
80
80
ENDCHAR
STARTCHAR G
ENCODING 71
SWIDTH 702 0
DWIDTH 7 0
BBX 6 7 1 0
BITMAP
3C
40
80
88
88
88
70
ENDCHAR
STARTCHAR H
ENCODING 72
SWIDTH 735 0
DWIDTH 7 0
BBX 5 7 1 0
BITMAP
48
48
48
F8
90
90
90
ENDCHAR
STARTCHAR I
ENCODING 73
SWIDTH 289 0
DWIDTH 4 0
BBX 2 7 1 0
BITMAP
40
40
40
C0
80
80
80
ENDCHAR
STARTCHAR J
ENCODING 74
SWIDTH 408 0
DWIDTH 4 0
BBX 4 8 -1 -1
BITMAP
10
10
10
30
20
20
20
C0
ENDCHAR
STARTCHAR K
ENCODING 75
SWIDTH 635 0
DWIDTH 7 0
BBX 6 7 1 0
BITMAP
44
48
50
E0
A0
90
88
ENDCHAR
STARTCHAR L
ENCODING 76
SWIDTH 545 0
DWIDTH 5 0
BBX 4 7 1 0
BITMAP
40
40
40
C0
80
80
F0
ENDCHAR
STARTCHAR M
ENCODING 77
SWIDTH 828 0
DWIDTH 9 0
BBX 7 7 1 0
BITMAP
42
66
5A
D2
94
84
84
ENDCHAR
STARTCHAR N
ENCODING 78
SWIDTH 741 0
DWIDTH 8 0
BBX 6 7 1 0
BITMAP
64
64
54
54
98
88
88
ENDCHAR
STARTCHAR O
ENCODING 79
SWIDTH 777 0
DWIDTH 8 0
BBX 6 7 1 0
BITMAP
38
44
84
84
84
88
70
ENDCHAR
STARTCHAR P
ENCODING 80
SWIDTH 575 0
DWIDTH 6 0
BBX 5 7 1 0
BITMAP
70
48
48
F0
80
80
80
ENDCHAR
STARTCHAR Q
ENCODING 81
SWIDTH 777 0
DWIDTH 8 0
BBX 6 9 1 -2
BITMAP
38
44
84
84
84
88
70
08
04
ENDCHAR
STARTCHAR R
ENCODING 82
SWIDTH 632 0
DWIDTH 7 0
BBX 5 7 1 0
BITMAP
70
48
48
F0
A0
90
88
ENDCHAR
STARTCHAR S
ENCODING 83
SWIDTH 553 0
DWIDTH 6 0
BBX 5 7 1 0
BITMAP
38
40
40
20
10
10
E0
ENDCHAR
STARTCHAR T
ENCODING 84
SWIDTH 623 0
DWIDTH 6 0
BBX 5 7 1 0
BITMAP
F8
20
20
60
40
40
40
ENDCHAR
STARTCHAR U
ENCODING 85
SWIDTH 693 0
DWIDTH 7 0
BBX 6 7 1 0
BITMAP
44
44
44
88
88
90
60
ENDCHAR
STARTCHAR V
ENCODING 86
SWIDTH 687 0
DWIDTH 7 0
BBX 5 7 2 0
BITMAP
88
88
90
90
A0
C0
80
ENDCHAR
STARTCHAR W
ENCODING 87
SWIDTH 886 0
DWIDTH 9 0
BBX 7 7 2 0
BITMAP
82
92
92
B4
B4
D8
90
ENDCHAR
STARTCHAR X
ENCODING 88
SWIDTH 620 0
DWIDTH 6 0
BBX 5 7 1 0
BITMAP
48
48
70
20
70
90
90
ENDCHAR
STARTCHAR Y
ENCODING 89
SWIDTH 608 0
DWIDTH 6 0
BBX 5 7 1 0
BITMAP
88
88
90
60
40
40
40
ENDCHAR
STARTCHAR Z
ENCODING 90
SWIDTH 578 0
DWIDTH 6 0
BBX 6 7 0 0
BITMAP
7C
08
10
20
40
80
F8
ENDCHAR
STARTCHAR bracketleft
ENCODING 91
SWIDTH 325 0
DWIDTH 3 0
BBX 4 9 0 -1
BITMAP
30
20
20
40
40
40
80
80
C0
ENDCHAR
STARTCHAR backslash
ENCODING 92
SWIDTH 482 0
DWIDTH 5 0
BBX 5 9 0 -1
BITMAP
80
80
40
40
20
10
10
08
08
ENDCHAR
STARTCHAR bracketright
ENCODING 93
SWIDTH 325 0
DWIDTH 3 0
BBX 4 9 -1 -1
BITMAP
30
10
10
20
20
20
40
40
C0
ENDCHAR
STARTCHAR asciicircum
ENCODING 94
SWIDTH 633 0
DWIDTH 7 0
BBX 5 6 1 1
BITMAP
08
18
28
48
88
88
ENDCHAR
STARTCHAR underscore
ENCODING 95
SWIDTH 500 0
DWIDTH 7 0
BBX 5 1 1 -1
BITMAP
F8
ENDCHAR
STARTCHAR grave
ENCODING 96
SWIDTH 572 0
DWIDTH 6 0
BBX 2 2 4 7
BITMAP
80
40
ENDCHAR
STARTCHAR a
ENCODING 97
SWIDTH 608 0
DWIDTH 6 0
BBX 5 6 1 0
BITMAP
38
48
88
90
B0
D0
ENDCHAR
STARTCHAR b
ENCODING 98
SWIDTH 608 0
DWIDTH 6 0
BBX 5 8 1 0
BITMAP
20
20
58
68
48
88
90
E0
ENDCHAR
STARTCHAR c
ENCODING 99
SWIDTH 503 0
DWIDTH 5 0
BBX 4 6 1 0
BITMAP
30
40
80
80
80
60
ENDCHAR
STARTCHAR d
ENCODING 100
SWIDTH 608 0
DWIDTH 6 0
BBX 6 8 1 0
BITMAP
04
04
38
48
88
90
B0
D0
ENDCHAR
STARTCHAR e
ENCODING 101
SWIDTH 529 0
DWIDTH 6 0
BBX 5 6 1 0
BITMAP
38
48
90
E0
80
70
ENDCHAR
STARTCHAR f
ENCODING 102
SWIDTH 383 0
DWIDTH 5 0
BBX 5 10 1 -2
BITMAP
18
20
78
20
40
40
40
80
80
80
ENDCHAR
STARTCHAR g
ENCODING 103
SWIDTH 608 0
DWIDTH 6 0
BBX 5 8 1 -2
BITMAP
38
48
88
90
B0
D0
10
E0
ENDCHAR
STARTCHAR h
ENCODING 104
SWIDTH 620 0
DWIDTH 6 0
BBX 5 8 1 0
BITMAP
20
20
58
68
48
90
90
90
ENDCHAR
STARTCHAR i
ENCODING 105
SWIDTH 289 0
DWIDTH 3 0
BBX 3 8 1 0
BITMAP
20
00
40
40
40
80
80
80
ENDCHAR
STARTCHAR j
ENCODING 106
SWIDTH 325 0
DWIDTH 3 0
BBX 5 10 -1 -2
BITMAP
08
00
10
10
10
20
20
20
40
C0
ENDCHAR
STARTCHAR k
ENCODING 107
SWIDTH 572 0
DWIDTH 6 0
BBX 5 8 1 0
BITMAP
20
20
48
50
60
A0
90
88
ENDCHAR
STARTCHAR l
ENCODING 108
SWIDTH 289 0
DWIDTH 3 0
BBX 3 8 1 0
BITMAP
20
20
40
40
40
80
80
80
ENDCHAR
STARTCHAR m
ENCODING 109
SWIDTH 934 0
DWIDTH 9 0
BBX 8 6 1 0
BITMAP
5B
6D
49
92
92
92
ENDCHAR
STARTCHAR n
ENCODING 110
SWIDTH 620 0
DWIDTH 6 0
BBX 5 6 1 0
BITMAP
58
68
48
90
90
90
ENDCHAR
STARTCHAR o
ENCODING 111
SWIDTH 566 0
DWIDTH 6 0
BBX 5 6 1 0
BITMAP
30
48
88
88
90
60
ENDCHAR
STARTCHAR p
ENCODING 112
SWIDTH 608 0
DWIDTH 6 0
BBX 6 8 0 -2
BITMAP
2C
34
24
44
48
70
80
80
ENDCHAR
STARTCHAR q
ENCODING 113
SWIDTH 608 0
DWIDTH 6 0
BBX 5 8 1 -2
BITMAP
38
48
88
90
B0
D0
20
20
ENDCHAR
STARTCHAR r
ENCODING 114
SWIDTH 478 0
DWIDTH 5 0
BBX 4 6 1 0
BITMAP
50
70
40
80
80
80
ENDCHAR
STARTCHAR s
ENCODING 115
SWIDTH 489 0
DWIDTH 5 0
BBX 5 6 0 0
BITMAP
38
40
60
30
10
E0
ENDCHAR
STARTCHAR t
ENCODING 116
SWIDTH 383 0
DWIDTH 4 0
BBX 4 7 1 0
BITMAP
20
F0
40
40
80
80
C0
ENDCHAR
STARTCHAR u
ENCODING 117
SWIDTH 620 0
DWIDTH 6 0
BBX 5 6 1 0
BITMAP
48
48
48
90
B0
D0
ENDCHAR
STARTCHAR v
ENCODING 118
SWIDTH 545 0
DWIDTH 6 0
BBX 4 6 2 0
BITMAP
90
90
90
A0
C0
80
ENDCHAR
STARTCHAR w
ENCODING 119
SWIDTH 795 0
DWIDTH 9 0
BBX 7 6 2 0
BITMAP
82
92
92
B4
D8
90
ENDCHAR
STARTCHAR x
ENCODING 120
SWIDTH 541 0
DWIDTH 5 0
BBX 6 6 0 0
BITMAP
24
28
30
30
50
90
ENDCHAR
STARTCHAR y
ENCODING 121
SWIDTH 548 0
DWIDTH 6 0
BBX 6 8 0 -2
BITMAP
24
24
24
28
28
30
20
C0
ENDCHAR
STARTCHAR z
ENCODING 122
SWIDTH 536 0
DWIDTH 5 0
BBX 5 6 1 0
BITMAP
78
10
20
40
80
F0
ENDCHAR
STARTCHAR braceleft
ENCODING 123
SWIDTH 325 0
DWIDTH 3 0
BBX 5 9 -1 -1
BITMAP
08
10
20
20
C0
20
40
40
20
ENDCHAR
STARTCHAR bar
ENCODING 124
SWIDTH 233 0
DWIDTH 3 0
BBX 3 9 1 -1
BITMAP
20
20
20
40
40
40
80
80
80
ENDCHAR
STARTCHAR braceright
ENCODING 125
SWIDTH 325 0
DWIDTH 3 0
BBX 5 9 -1 -1
BITMAP
20
10
10
20
18
20
20
40
80
ENDCHAR
STARTCHAR asciitilde
ENCODING 126
SWIDTH 633 0
DWIDTH 7 0
BBX 6 2 1 3
BITMAP
64
98
ENDCHAR
STARTCHAR space
ENCODING 160
SWIDTH 316 0
DWIDTH 3 0
BBX 1 1 0 0
BITMAP
00
ENDCHAR
STARTCHAR exclamdown
ENCODING 161
SWIDTH 193 0
DWIDTH 3 0
BBX 3 7 0 -1
BITMAP
20
20
00
40
40
80
80
ENDCHAR
STARTCHAR cent
ENCODING 162
SWIDTH 633 0
DWIDTH 7 0
BBX 6 8 1 -1
BITMAP
10
3C
50
90
A0
A0
70
20
ENDCHAR
STARTCHAR sterling
ENCODING 163
SWIDTH 633 0
DWIDTH 7 0
BBX 6 7 1 0
BITMAP
1C
20
20
F0
40
40
F8
ENDCHAR
STARTCHAR currency
ENCODING 164
SWIDTH 633 0
DWIDTH 7 0
BBX 7 7 0 0
BITMAP
42
3C
24
44
48
78
84
ENDCHAR
STARTCHAR yen
ENCODING 165
SWIDTH 633 0
DWIDTH 7 0
BBX 6 7 1 0
BITMAP
44
44
48
30
FC
20
20
ENDCHAR
STARTCHAR brokenbar
ENCODING 166
SWIDTH 233 0
DWIDTH 3 0
BBX 3 9 1 -1
BITMAP
20
20
20
00
00
00
80
80
80
ENDCHAR
STARTCHAR section
ENCODING 167
SWIDTH 633 0
DWIDTH 7 0
BBX 6 8 1 -1
BITMAP
38
44
70
48
68
18
88
70
ENDCHAR
STARTCHAR dieresis
ENCODING 168
SWIDTH 566 0
DWIDTH 6 0
BBX 4 1 2 7
BITMAP
90
ENDCHAR
STARTCHAR copyright
ENCODING 169
SWIDTH 858 0
DWIDTH 9 0
BBX 7 7 1 0
BITMAP
38
44
BA
A2
BA
44
38
ENDCHAR
STARTCHAR ordfeminine
ENCODING 170
SWIDTH 392 0
DWIDTH 5 0
BBX 4 5 1 2
BITMAP
70
90
90
B0
D0
ENDCHAR
STARTCHAR guillemotleft
ENCODING 171
SWIDTH 527 0
DWIDTH 6 0
BBX 6 4 0 2
BITMAP
24
48
90
48
ENDCHAR
STARTCHAR logicalnot
ENCODING 172
SWIDTH 633 0
DWIDTH 7 0
BBX 5 3 1 1
BITMAP
F8
08
08
ENDCHAR
STARTCHAR hyphen
ENCODING 173
SWIDTH 313 0
DWIDTH 3 0
BBX 2 1 1 3
BITMAP
C0
ENDCHAR
STARTCHAR registered
ENCODING 174
SWIDTH 633 0
DWIDTH 7 0
BBX 7 7 0 0
BITMAP
38
44
BA
B2
AA
44
38
ENDCHAR
STARTCHAR macron
ENCODING 175
SWIDTH 566 0
DWIDTH 6 0
BBX 3 1 3 7
BITMAP
E0
ENDCHAR
STARTCHAR degree
ENCODING 176
SWIDTH 269 0
DWIDTH 3 0
BBX 3 3 0 4
BITMAP
40
A0
40
ENDCHAR
STARTCHAR plusminus
ENCODING 177
SWIDTH 633 0
DWIDTH 7 0
BBX 6 6 1 1
BITMAP
08
08
7C
10
00
F8
ENDCHAR
STARTCHAR twosuperior
ENCODING 178
SWIDTH 392 0
DWIDTH 4 0
BBX 4 5 1 2
BITMAP
60
10
20
40
E0
ENDCHAR
STARTCHAR threesuperior
ENCODING 179
SWIDTH 392 0
DWIDTH 4 0
BBX 4 5 0 2
BITMAP
70
10
60
10
E0
ENDCHAR
STARTCHAR acute
ENCODING 180
SWIDTH 566 0
DWIDTH 6 0
BBX 2 2 4 7
BITMAP
40
80
ENDCHAR
STARTCHAR mu
ENCODING 181
SWIDTH 627 0
DWIDTH 6 0
BBX 6 8 0 -2
BITMAP
24
24
24
48
58
68
80
80
ENDCHAR
STARTCHAR paragraph
ENCODING 182
SWIDTH 633 0
DWIDTH 7 0
BBX 5 8 1 -1
BITMAP
78
E8
E8
50
50
50
A0
A0
ENDCHAR
STARTCHAR periodcentered
ENCODING 183
SWIDTH 316 0
DWIDTH 7 0
BBX 2 2 3 2
BITMAP
C0
C0
ENDCHAR
STARTCHAR cedilla
ENCODING 184
SWIDTH 566 0
DWIDTH 6 0
BBX 3 2 0 -2
BITMAP
20
C0
ENDCHAR
STARTCHAR onesuperior
ENCODING 185
SWIDTH 392 0
DWIDTH 4 0
BBX 2 5 2 2
BITMAP
C0
40
80
80
80
ENDCHAR
STARTCHAR ordmasculine
ENCODING 186
SWIDTH 392 0
DWIDTH 5 0
BBX 4 5 1 2
BITMAP
60
90
90
90
60
ENDCHAR
STARTCHAR guillemotright
ENCODING 187
SWIDTH 527 0
DWIDTH 6 0
BBX 6 4 0 2
BITMAP
48
24
48
90
ENDCHAR
STARTCHAR onequarter
ENCODING 188
SWIDTH 865 0
DWIDTH 9 0
BBX 8 7 1 0
BITMAP
44
48
90
B2
2A
5F
84
ENDCHAR
STARTCHAR onehalf
ENCODING 189
SWIDTH 865 0
DWIDTH 9 0
BBX 8 7 1 0
BITMAP
44
48
90
B7
21
46
8F
ENDCHAR
STARTCHAR threequarters
ENCODING 190
SWIDTH 865 0
DWIDTH 9 0
BBX 9 7 0 0
BITMAP
F200
6400
2800
D900
1500
2F80
4200
ENDCHAR
STARTCHAR questiondown
ENCODING 191
SWIDTH 464 0
DWIDTH 5 0
BBX 5 7 0 -1
BITMAP
08
08
00
70
80
90
60
ENDCHAR
STARTCHAR Agrave
ENCODING 192
SWIDTH 687 0
DWIDTH 7 0
BBX 5 9 1 0
BITMAP
10
08
00
18
28
48
78
88
88
ENDCHAR
STARTCHAR Aacute
ENCODING 193
SWIDTH 687 0
DWIDTH 7 0
BBX 5 9 1 0
BITMAP
08
10
00
18
28
48
78
88
88
ENDCHAR
STARTCHAR Acircumflex
ENCODING 194
SWIDTH 687 0
DWIDTH 7 0
BBX 5 9 1 0
BITMAP
10
28
00
18
28
48
78
88
88
ENDCHAR
STARTCHAR Atilde
ENCODING 195
SWIDTH 687 0
DWIDTH 7 0
BBX 6 9 1 0
BITMAP
34
58
00
18
28
48
78
88
88
ENDCHAR
STARTCHAR Adieresis
ENCODING 196
SWIDTH 687 0
DWIDTH 7 0
BBX 5 8 1 0
BITMAP
28
00
18
28
48
78
88
88
ENDCHAR
STARTCHAR Aring
ENCODING 197
SWIDTH 687 0
DWIDTH 7 0
BBX 5 9 1 0
BITMAP
10
28
10
18
28
48
78
88
88
ENDCHAR
STARTCHAR AE
ENCODING 198
SWIDTH 893 0
DWIDTH 9 0
BBX 9 7 1 0
BITMAP
0F80
1400
2400
4F00
7800
8800
8F00
ENDCHAR
STARTCHAR Ccedilla
ENCODING 199
SWIDTH 679 0
DWIDTH 7 0
BBX 6 9 1 -2
BITMAP
3C
40
80
80
80
80
78
20
C0
ENDCHAR
STARTCHAR Egrave
ENCODING 200
SWIDTH 547 0
DWIDTH 6 0
BBX 5 9 1 0
BITMAP
20
10
00
78
40
70
80
80
F0
ENDCHAR
STARTCHAR Eacute
ENCODING 201
SWIDTH 547 0
DWIDTH 6 0
BBX 5 9 1 0
BITMAP
10
20
00
78
40
70
80
80
F0
ENDCHAR
STARTCHAR Ecircumflex
ENCODING 202
SWIDTH 547 0
DWIDTH 6 0
BBX 5 9 1 0
BITMAP
10
28
00
78
40
70
80
80
F0
ENDCHAR
STARTCHAR Edieresis
ENCODING 203
SWIDTH 547 0
DWIDTH 6 0
BBX 5 8 1 0
BITMAP
48
00
78
40
70
80
80
F0
ENDCHAR
STARTCHAR Igrave
ENCODING 204
SWIDTH 289 0
DWIDTH 4 0
BBX 2 9 1 0
BITMAP
80
40
00
40
40
C0
80
80
80
ENDCHAR
STARTCHAR Iacute
ENCODING 205
SWIDTH 289 0
DWIDTH 4 0
BBX 3 9 1 0
BITMAP
20
40
00
40
40
C0
80
80
80
ENDCHAR
STARTCHAR Icircumflex
ENCODING 206
SWIDTH 289 0
DWIDTH 4 0
BBX 3 9 1 0
BITMAP
40
A0
00
40
40
C0
80
80
80
ENDCHAR
STARTCHAR Idieresis
ENCODING 207
SWIDTH 289 0
DWIDTH 4 0
BBX 3 8 1 0
BITMAP
A0
00
40
40
C0
80
80
80
ENDCHAR
STARTCHAR Eth
ENCODING 208
SWIDTH 743 0
DWIDTH 8 0
BBX 7 7 0 0
BITMAP
3C
22
22
F2
42
44
78
ENDCHAR
STARTCHAR Ntilde
ENCODING 209
SWIDTH 741 0
DWIDTH 8 0
BBX 7 9 1 0
BITMAP
1A
2C
00
44
64
54
98
88
88
ENDCHAR
STARTCHAR Ograve
ENCODING 210
SWIDTH 777 0
DWIDTH 8 0
BBX 6 9 1 0
BITMAP
20
10
00
38
44
84
84
88
70
ENDCHAR
STARTCHAR Oacute
ENCODING 211
SWIDTH 777 0
DWIDTH 8 0
BBX 6 9 1 0
BITMAP
08
10
00
38
44
84
84
88
70
ENDCHAR
STARTCHAR Ocircumflex
ENCODING 212
SWIDTH 777 0
DWIDTH 8 0
BBX 6 9 1 0
BITMAP
10
28
00
38
44
84
84
88
70
ENDCHAR
STARTCHAR Otilde
ENCODING 213
SWIDTH 777 0
DWIDTH 8 0
BBX 6 9 1 0
BITMAP
34
58
00
38
44
84
84
88
70
ENDCHAR
STARTCHAR Odieresis
ENCODING 214
SWIDTH 777 0
DWIDTH 8 0
BBX 6 8 1 0
BITMAP
24
00
38
44
84
84
88
70
ENDCHAR
STARTCHAR multiply
ENCODING 215
SWIDTH 633 0
DWIDTH 7 0
BBX 6 5 1 1
BITMAP
44
28
30
50
88
ENDCHAR
STARTCHAR Oslash
ENCODING 216
SWIDTH 777 0
DWIDTH 8 0
BBX 8 7 0 0
BITMAP
1D
22
46
5A
62
44
B8
ENDCHAR
STARTCHAR Ugrave
ENCODING 217
SWIDTH 693 0
DWIDTH 7 0
BBX 6 9 1 0
BITMAP
10
08
00
44
44
88
88
90
60
ENDCHAR
STARTCHAR Uacute
ENCODING 218
SWIDTH 693 0
DWIDTH 7 0
BBX 6 9 1 0
BITMAP
08
10
00
44
44
88
88
90
60
ENDCHAR
STARTCHAR Ucircumflex
ENCODING 219
SWIDTH 693 0
DWIDTH 7 0
BBX 6 9 1 0
BITMAP
10
28
00
44
44
88
88
90
60
ENDCHAR
STARTCHAR Udieresis
ENCODING 220
SWIDTH 693 0
DWIDTH 7 0
BBX 6 8 1 0
BITMAP
24
00
44
44
88
88
90
60
ENDCHAR
STARTCHAR Yacute
ENCODING 221
SWIDTH 608 0
DWIDTH 6 0
BBX 5 9 1 0
BITMAP
20
50
00
88
90
60
40
40
40
ENDCHAR
STARTCHAR Thorn
ENCODING 222
SWIDTH 575 0
DWIDTH 6 0
BBX 5 7 1 0
BITMAP
40
40
70
88
F0
80
80
ENDCHAR
STARTCHAR germandbls
ENCODING 223
SWIDTH 595 0
DWIDTH 6 0
BBX 5 9 1 -1
BITMAP
30
28
48
50
48
88
88
B0
80
ENDCHAR
STARTCHAR agrave
ENCODING 224
SWIDTH 608 0
DWIDTH 6 0
BBX 5 9 1 0
BITMAP
20
10
00
38
48
88
90
B0
D0
ENDCHAR
STARTCHAR aacute
ENCODING 225
SWIDTH 608 0
DWIDTH 6 0
BBX 5 9 1 0
BITMAP
08
10
00
38
48
88
90
B0
D0
ENDCHAR
STARTCHAR acircumflex
ENCODING 226
SWIDTH 608 0
DWIDTH 6 0
BBX 5 9 1 0
BITMAP
10
28
00
38
48
88
90
B0
D0
ENDCHAR
STARTCHAR atilde
ENCODING 227
SWIDTH 608 0
DWIDTH 6 0
BBX 6 9 1 0
BITMAP
34
58
00
38
48
88
90
B0
D0
ENDCHAR
STARTCHAR adieresis
ENCODING 228
SWIDTH 608 0
DWIDTH 6 0
BBX 5 8 1 0
BITMAP
48
00
38
48
88
90
B0
D0
ENDCHAR
STARTCHAR aring
ENCODING 229
SWIDTH 608 0
DWIDTH 6 0
BBX 5 9 1 0
BITMAP
10
28
00
38
48
88
90
B0
D0
ENDCHAR
STARTCHAR ae
ENCODING 230
SWIDTH 893 0
DWIDTH 9 0
BBX 7 6 1 0
BITMAP
66
1A
72
9C
B0
CC
ENDCHAR
STARTCHAR ccedilla
ENCODING 231
SWIDTH 503 0
DWIDTH 5 0
BBX 5 8 0 -2
BITMAP
18
20
40
40
40
30
20
C0
ENDCHAR
STARTCHAR egrave
ENCODING 232
SWIDTH 529 0
DWIDTH 6 0
BBX 5 9 1 0
BITMAP
20
10
00
38
48
90
E0
80
70
ENDCHAR
STARTCHAR eacute
ENCODING 233
SWIDTH 529 0
DWIDTH 6 0
BBX 5 9 1 0
BITMAP
08
10
00
38
48
90
E0
80
70
ENDCHAR
STARTCHAR ecircumflex
ENCODING 234
SWIDTH 529 0
DWIDTH 6 0
BBX 5 9 1 0
BITMAP
10
28
00
38
48
90
E0
80
70
ENDCHAR
STARTCHAR edieresis
ENCODING 235
SWIDTH 529 0
DWIDTH 6 0
BBX 5 8 1 0
BITMAP
48
00
38
48
90
E0
80
70
ENDCHAR
STARTCHAR igrave
ENCODING 236
SWIDTH 289 0
DWIDTH 3 0
BBX 2 9 1 0
BITMAP
80
40
00
40
40
40
80
80
80
ENDCHAR
STARTCHAR iacute
ENCODING 237
SWIDTH 289 0
DWIDTH 3 0
BBX 3 9 1 0
BITMAP
20
40
00
40
40
40
80
80
80
ENDCHAR
STARTCHAR icircumflex
ENCODING 238
SWIDTH 289 0
DWIDTH 3 0
BBX 3 9 1 0
BITMAP
40
A0
00
40
40
40
80
80
80
ENDCHAR
STARTCHAR idieresis
ENCODING 239
SWIDTH 289 0
DWIDTH 3 0
BBX 3 8 1 0
BITMAP
A0
00
40
40
40
80
80
80
ENDCHAR
STARTCHAR eth
ENCODING 240
SWIDTH 556 0
DWIDTH 6 0
BBX 6 8 1 0
BITMAP
10
3C
08
38
48
88
90
60
ENDCHAR
STARTCHAR ntilde
ENCODING 241
SWIDTH 620 0
DWIDTH 6 0
BBX 6 9 1 0
BITMAP
34
58
00
58
68
48
90
90
90
ENDCHAR
STARTCHAR ograve
ENCODING 242
SWIDTH 566 0
DWIDTH 6 0
BBX 5 9 1 0
BITMAP
20
10
00
30
48
88
88
90
60
ENDCHAR
STARTCHAR oacute
ENCODING 243
SWIDTH 566 0
DWIDTH 6 0
BBX 5 9 1 0
BITMAP
08
10
00
30
48
88
88
90
60
ENDCHAR
STARTCHAR ocircumflex
ENCODING 244
SWIDTH 566 0
DWIDTH 6 0
BBX 5 9 1 0
BITMAP
10
28
00
30
48
88
88
90
60
ENDCHAR
STARTCHAR otilde
ENCODING 245
SWIDTH 566 0
DWIDTH 6 0
BBX 6 9 1 0
BITMAP
34
58
00
30
48
88
88
90
60
ENDCHAR
STARTCHAR odieresis
ENCODING 246
SWIDTH 566 0
DWIDTH 6 0
BBX 5 8 1 0
BITMAP
48
00
30
48
88
88
90
60
ENDCHAR
STARTCHAR divide
ENCODING 247
SWIDTH 633 0
DWIDTH 7 0
BBX 6 5 1 1
BITMAP
10
00
FC
00
20
ENDCHAR
STARTCHAR oslash
ENCODING 248
SWIDTH 566 0
DWIDTH 6 0
BBX 7 6 0 0
BITMAP
1A
24
4C
64
48
B0
ENDCHAR
STARTCHAR ugrave
ENCODING 249
SWIDTH 620 0
DWIDTH 6 0
BBX 5 9 1 0
BITMAP
20
10
00
48
48
48
90
B0
D0
ENDCHAR
STARTCHAR uacute
ENCODING 250
SWIDTH 620 0
DWIDTH 6 0
BBX 5 9 1 0
BITMAP
08
10
00
48
48
48
90
B0
D0
ENDCHAR
STARTCHAR ucircumflex
ENCODING 251
SWIDTH 620 0
DWIDTH 6 0
BBX 5 9 1 0
BITMAP
10
28
00
48
48
48
90
B0
D0
ENDCHAR
STARTCHAR udieresis
ENCODING 252
SWIDTH 620 0
DWIDTH 6 0
BBX 5 8 1 0
BITMAP
48
00
48
48
48
90
B0
D0
ENDCHAR
STARTCHAR yacute
ENCODING 253
SWIDTH 548 0
DWIDTH 6 0
BBX 6 11 0 -2
BITMAP
04
08
00
24
24
24
28
28
30
20
C0
ENDCHAR
STARTCHAR thorn
ENCODING 254
SWIDTH 608 0
DWIDTH 6 0
BBX 6 9 0 -2
BITMAP
20
2C
34
64
44
48
70
80
80
ENDCHAR
STARTCHAR ydieresis
ENCODING 255
SWIDTH 548 0
DWIDTH 6 0
BBX 6 10 0 -2
BITMAP
24
00
24
24
24
28
28
30
20
C0
ENDCHAR
ENDFONT
